<svg version="1.0" xmlns="http://www.w3.org/2000/svg"
 width="160.000000pt" height="91.000000pt" viewBox="0 0 160.000000 91.000000"
 preserveAspectRatio="xMidYMid meet">
<metadata>
Created by potrace 1.10, written by Peter Selinger 2001-2011
</metadata>
<g transform="translate(0.000000,91.000000) scale(0.100000,-0.100000)"
fill="var(--secondary)" stroke="none">
<path d="M31 866 c-14 -17 -7 -36 14 -36 22 0 29 20 13 36 -13 13 -16 13 -27
0z"/>
<path d="M201 866 c-14 -17 -7 -36 14 -36 22 0 29 20 13 36 -13 13 -16 13 -27
0z"/>
<path d="M541 870 c-17 -10 -7 -40 13 -40 7 0 16 6 19 14 8 19 -15 37 -32 26z"/>
<path d="M1211 866 c-14 -17 -7 -36 14 -36 22 0 29 20 13 36 -13 13 -16 13
-27 0z"/>
<path d="M1381 866 c-14 -17 -7 -36 14 -36 22 0 29 20 13 36 -13 13 -16 13
-27 0z"/>
<path d="M1551 870 c-17 -10 -7 -40 14 -40 8 0 15 9 15 19 0 24 -12 32 -29 21z"/>
<path d="M362 853 c5 -26 38 -29 38 -4 0 15 -6 21 -21 21 -14 0 -19 -5 -17
-17z"/>
<path d="M700 849 c0 -14 5 -19 17 -17 26 5 29 38 4 38 -15 0 -21 -6 -21 -21z"/>
<path d="M870 849 c0 -14 5 -19 17 -17 26 5 29 38 4 38 -15 0 -21 -6 -21 -21z"/>
<path d="M1040 849 c0 -14 5 -19 17 -17 26 5 29 38 4 38 -15 0 -21 -6 -21 -21z"/>
<path d="M31 666 c-14 -17 -7 -36 14 -36 22 0 29 20 13 36 -13 13 -16 13 -27
0z"/>
<path d="M201 666 c-14 -17 -7 -36 14 -36 22 0 29 20 13 36 -13 13 -16 13 -27
0z"/>
<path d="M371 670 c-17 -10 -7 -40 14 -40 8 0 15 9 15 19 0 24 -12 32 -29 21z"/>
<path d="M541 670 c-17 -10 -7 -40 13 -40 7 0 16 6 19 14 8 19 -15 37 -32 26z"/>
<path d="M706 673 c-3 -4 -6 -15 -6 -25 0 -24 33 -21 38 3 3 17 -21 33 -32 22z"/>
<path d="M1043 664 c-7 -19 11 -39 26 -30 16 10 13 33 -4 40 -9 3 -18 -1 -22
-10z"/>
<path d="M1211 666 c-14 -17 -7 -36 14 -36 22 0 29 20 13 36 -13 13 -16 13
-27 0z"/>
<path d="M1381 666 c-14 -17 -7 -36 14 -36 22 0 29 20 13 36 -13 13 -16 13
-27 0z"/>
<path d="M1551 670 c-17 -10 -7 -40 14 -40 8 0 15 9 15 19 0 24 -12 32 -29 21z"/>
<path d="M870 649 c0 -14 5 -19 17 -17 26 5 29 38 4 38 -15 0 -21 -6 -21 -21z"/>
<path d="M24 459 c-3 -6 0 -17 8 -25 13 -13 16 -13 27 0 7 8 10 20 6 26 -8 13
-32 13 -41 -1z"/>
<path d="M194 459 c-3 -6 0 -17 7 -25 18 -17 44 -2 36 20 -7 18 -33 21 -43 5z"/>
<path d="M363 454 c-6 -16 15 -37 29 -28 4 3 8 14 8 25 0 23 -28 26 -37 3z"/>
<path d="M533 454 c-7 -20 17 -37 34 -23 15 13 6 39 -13 39 -8 0 -17 -7 -21
-16z"/>
<path d="M700 451 c0 -11 4 -22 8 -25 14 -9 35 12 29 28 -9 23 -37 20 -37 -3z"/>
<path d="M870 451 c0 -11 4 -22 8 -25 14 -9 35 12 29 28 -9 23 -37 20 -37 -3z"/>
<path d="M1043 454 c-8 -20 8 -36 26 -25 15 10 8 41 -9 41 -6 0 -13 -7 -17
-16z"/>
<path d="M1204 459 c-3 -6 0 -17 8 -25 13 -13 16 -13 27 0 7 8 10 20 6 26 -8
13 -32 13 -41 -1z"/>
<path d="M1374 459 c-3 -6 0 -17 8 -25 13 -13 16 -13 27 0 7 8 10 20 6 26 -8
13 -32 13 -41 -1z"/>
<path d="M1543 454 c-6 -16 15 -37 29 -28 4 3 8 14 8 25 0 23 -28 26 -37 3z"/>
<path d="M24 259 c-3 -6 0 -17 8 -25 13 -13 16 -13 27 0 7 8 10 20 6 26 -8 13
-32 13 -41 -1z"/>
<path d="M194 259 c-3 -6 0 -17 8 -25 13 -13 16 -13 27 0 7 8 10 20 6 26 -8
13 -32 13 -41 -1z"/>
<path d="M363 254 c-6 -16 15 -37 29 -28 4 3 8 14 8 25 0 23 -28 26 -37 3z"/>
<path d="M533 254 c-7 -20 17 -37 34 -23 15 13 6 39 -13 39 -8 0 -17 -7 -21
-16z"/>
<path d="M700 251 c0 -11 4 -22 8 -25 14 -9 35 12 29 28 -9 23 -37 20 -37 -3z"/>
<path d="M870 251 c0 -11 4 -22 8 -25 14 -9 35 12 29 28 -9 23 -37 20 -37 -3z"/>
<path d="M1040 251 c0 -11 4 -22 8 -25 14 -9 35 12 29 28 -9 23 -37 20 -37 -3z"/>
<path d="M1204 259 c-3 -6 0 -17 8 -25 13 -13 16 -13 27 0 7 8 10 20 6 26 -8
13 -32 13 -41 -1z"/>
<path d="M1374 259 c-3 -6 0 -17 8 -25 13 -13 16 -13 27 0 7 8 10 20 6 26 -8
13 -32 13 -41 -1z"/>
<path d="M1543 254 c-6 -16 15 -37 29 -28 4 3 8 14 8 25 0 23 -28 26 -37 3z"/>
<path d="M31 56 c-14 -17 -7 -36 14 -36 22 0 29 20 13 36 -13 13 -16 13 -27 0z"/>
<path d="M199 54 c-9 -11 -9 -18 -1 -26 14 -14 42 -3 42 16 0 20 -27 27 -41
10z"/>
<path d="M371 60 c-17 -10 -7 -40 14 -40 8 0 15 9 15 19 0 24 -12 32 -29 21z"/>
<path d="M541 60 c-17 -10 -7 -40 13 -40 7 0 16 6 19 14 8 19 -15 37 -32 26z"/>
<path d="M706 63 c-3 -4 -6 -15 -6 -25 0 -24 33 -21 38 3 3 17 -21 33 -32 22z"/>
<path d="M877 64 c-15 -15 -7 -45 11 -42 9 2 17 12 17 22 0 20 -16 31 -28 20z"/>
<path d="M1043 54 c-8 -21 13 -42 28 -27 13 13 5 43 -11 43 -6 0 -13 -7 -17
-16z"/>
<path d="M1211 56 c-14 -17 -7 -36 14 -36 22 0 29 20 13 36 -13 13 -16 13 -27
0z"/>
<path d="M1379 54 c-9 -11 -9 -18 -1 -26 14 -14 42 -3 42 16 0 20 -27 27 -41
10z"/>
<path d="M1551 60 c-17 -10 -7 -40 14 -40 8 0 15 9 15 19 0 24 -12 32 -29 21z"/>
</g>
</svg>