<svg xmlns="http://www.w3.org/2000/svg" width="80%" viewBox="0 0 512 512" fill="#fff"><g id="_16-express" data-name="16-express"><g id="linear_color" data-name="linear color"><path d="M459.618,149.353l12.867-12.868a12,12,0,1,0-16.97-16.97l-13.392,13.392A179.444,179.444,0,0,0,364,95.619V68h12a12,12,0,0,0,12-12V16A12,12,0,0,0,376,4H280a12,12,0,0,0-12,12V56a12,12,0,0,0,12,12h12V95.619a179.444,179.444,0,0,0-78.123,37.288l-13.392-13.392a12,12,0,1,0-16.97,16.97l12.867,12.868A179.327,179.327,0,0,0,148,272c0,99.252,80.748,180,180,180s180-80.748,180-180A179.327,179.327,0,0,0,459.618,149.353ZM292,28h72V44H292Zm24,40h24V92.41c-3.968-.263-7.967-.41-12-.41s-8.032.147-12,.41Zm12,360c-86.019,0-156-69.981-156-156s69.981-156,156-156,156,69.981,156,156S414.019,428,328,428Z"/><path d="M328,140c-72.785,0-132,59.215-132,132s59.215,132,132,132,132-59.215,132-132S400.785,140,328,140ZM435.33,260H340V164.67A108.2,108.2,0,0,1,435.33,260ZM328,380a108,108,0,0,1-12-215.33V272a12,12,0,0,0,12,12H435.33A108.151,108.151,0,0,1,328,380Z"/><path d="M136,188H56a12,12,0,0,0,0,24h80a12,12,0,0,0,0-24Z"/><path d="M132,296a12,12,0,0,0-12-12H40a12,12,0,0,0,0,24h80A12,12,0,0,0,132,296Z"/><path d="M128,332H72a12,12,0,0,0,0,24h56a12,12,0,0,0,0-24Z"/><path d="M132,248a12,12,0,0,0-12-12H16a12,12,0,0,0,0,24H120A12,12,0,0,0,132,248Z"/></g></g></svg>